<?xml version="1.0" encoding="UTF-8" standalone="no"?>
<!-- Created with Inkscape (http://www.inkscape.org/) -->

<svg
   version="1.1"
   id="svg1"
   width="1024"
   height="1024"
   viewBox="0 0 1024 1024"
   xmlns="http://www.w3.org/2000/svg"
   xmlns:svg="http://www.w3.org/2000/svg">
  <defs
     id="defs1" />
  <g
     id="g1">
    <path
       style="fill:currentColor"
       d="M 496.45672,998.67468 C 457.4507,899.54569 452.31039,887.93335 347.86701,663 180.7448,303.07909 102.52844,137.30837 54.775749,41.826292 43.820849,19.921832 35.067189,1.9999998 35.323169,1.9999998 c 2.31781,0 1.79749,-0.247329 214.539461,101.9780902 57.475,27.61752 114.48809,55.00436 126.69575,60.85965 l 22.19574,10.64599 19.98894,40.50813 c 21.3016,43.16828 29.35062,60.11043 28.81313,60.64791 -0.18308,0.18308 -8.40153,-4.22388 -18.26322,-9.79326 -45.76319,-25.84472 -62.23161,-34.85782 -123.93034,-67.82658 -36.3,-19.39693 -81.06384,-43.38088 -99.47519,-53.29767 -36.9786,-19.91755 -49.76517,-26.31523 -50.70865,-25.37175 -0.34489,0.34489 4.95538,6.36962 11.77838,13.38828 12.21725,12.5676 12.52926,13.00396 20.56528,28.76121 4.4879,8.8 14.66828,29.95 22.62307,47 38.76712,83.09201 190.36046,401.84214 204.8123,430.6518 C 431.50781,673.14414 427.79509,661.61505 397.0362,584.5 350.09368,466.81127 269.65262,274.53668 255.73323,246.75 252.49592,240.2875 250.0668,235 250.33519,235 c 0.81611,0 37.26802,23.96035 54.12994,35.58037 23.8787,16.45547 25.25461,18.05116 35.28357,40.91963 25.09408,57.22059 154.85004,356.34306 163.21901,376.26383 2.37159,5.6451 4.78063,10.11011 5.35344,9.92225 0.57282,-0.18786 2.0484,-2.10658 3.27908,-4.26382 2.19582,-3.84904 35.47801,-81.38989 125.08467,-291.42226 24.75536,-58.025 45.93969,-107.57216 47.0763,-110.10479 1.95163,-4.34872 4.05563,-5.9575 37.83399,-28.92898 C 767.71481,231.6019 765.62898,233 766.30192,233 c 0.31842,0 -1.62828,4.39841 -4.326,9.77425 C 743.75131,279.09101 601.19012,625.32035 593.47572,652 l -1.59033,5.5 1.9482,-2.5 c 3.53541,-4.53678 65.54129,-134.88648 195.50804,-411 17.99252,-38.225 35.92733,-75.8 39.85513,-83.5 6.84024,-13.40951 7.65865,-14.53152 19.40366,-26.60176 6.74424,-6.93097 12.26224,-12.89347 12.26224,-13.25 0,-2.4148 -3.4784,-0.65811 -67.21167,33.94414 -137.05125,74.40824 -188.92268,103.11335 -211.65152,117.12573 -5.69973,3.5139 -10.57794,6.17412 -10.84046,5.91161 -0.99868,-0.99869 25.54145,-55.64321 42.03868,-86.5551 l 7.16494,-13.42539 43,-21.18166 c 23.65,-11.64991 80.35,-39.29509 126,-61.433736 45.65,-22.13865 107.37803,-52.302354 137.17353,-67.030459 l 54.1735,-26.7783742 -3.2987,7.137499 C 975.59666,12.288125 962.38006,39.125 948.04076,68 933.70146,96.875004 885.77626,197.45 841.54029,291.5 797.30437,385.55 744.00896,498.725 723.10606,543 c -41.14477,87.14981 -87.47354,186.39443 -119.97119,257 -43.23456,93.93297 -58.74368,129.56951 -80.51252,184.99998 -6.58793,16.77502 -12.94143,32.37862 -14.11889,34.67462 l -2.14083,4.1747 z"
       id="path1" />
  </g>
</svg>
